<?xml version="1.0" encoding="UTF-8" standalone="no"?>
<!-- Generator: Adobe Illustrator 16.0.0, SVG Export Plug-In . SVG Version: 6.00 Build 0)  -->

<svg
   xmlns:dc="http://purl.org/dc/elements/1.1/"
   xmlns:cc="http://creativecommons.org/ns#"
   xmlns:rdf="http://www.w3.org/1999/02/22-rdf-syntax-ns#"
   xmlns:svg="http://www.w3.org/2000/svg"
   xmlns="http://www.w3.org/2000/svg"
   xmlns:sodipodi="http://sodipodi.sourceforge.net/DTD/sodipodi-0.dtd"
   xmlns:inkscape="http://www.inkscape.org/namespaces/inkscape"
   version="1.1"
   id="Capa_1"
   x="0px"
   y="0px"
   width="487.911px"
   height="487.911px"
   viewBox="0 0 487.911 487.911"
   style="enable-background:new 0 0 487.911 487.911;"
   xml:space="preserve"
   inkscape:version="0.91 r13725"
   sodipodi:docname="bike_garage.svg"><metadata
     id="metadata45"><rdf:RDF><cc:Work
         rdf:about=""><dc:format>image/svg+xml</dc:format><dc:type
           rdf:resource="http://purl.org/dc/dcmitype/StillImage" /><dc:title></dc:title></cc:Work></rdf:RDF></metadata><defs
     id="defs43" /><sodipodi:namedview
     pagecolor="#ffffff"
     bordercolor="#666666"
     borderopacity="1"
     objecttolerance="10"
     gridtolerance="10"
     guidetolerance="10"
     inkscape:pageopacity="0"
     inkscape:pageshadow="2"
     inkscape:window-width="958"
     inkscape:window-height="1008"
     id="namedview41"
     showgrid="false"
     inkscape:zoom="0.48369476"
     inkscape:cx="243.95551"
     inkscape:cy="243.95551"
     inkscape:window-x="953"
     inkscape:window-y="0"
     inkscape:window-maximized="0"
     inkscape:current-layer="Capa_1" /><g
     id="g3"
     style="fill:#be00ff;fill-opacity:1"><g
       id="g5"
       style="fill:#be00ff;fill-opacity:1"><path
         d="M392.067,209.827c-19.951,0-38.479,6.14-53.839,16.613c-21.97-29.461-42.293-66.4-47.93-106.988    c-0.377-2.673-1.526-5.045-3.201-6.916h22.195c7.223,0,13.074-5.855,13.074-13.068c0-7.212-5.852-13.067-13.074-13.067H246.86    c-7.218,0-13.067,5.855-13.067,13.067c0,7.212,5.849,13.068,13.067,13.068h20.831c-2.492,2.769-3.838,6.533-3.286,10.506    c2.194,15.778,6.315,30.947,11.7,45.409H152.471c-5.551,0-10.496,3.502-12.331,8.736l-13.297,37.885    c-9.74-3.341-20.145-5.245-31.003-5.245c-52.843,0-95.839,43-95.839,95.836c0,52.849,42.996,95.843,95.839,95.843    c43.605,0,80.435-29.303,92.001-69.228l30.454,5.154c3.518,14.567,16.552,25.418,32.196,25.418    c18.349,0,33.221-14.867,33.221-33.226c0-7.519-2.6-14.363-6.812-19.945l19.874-98.184c6.867,11.689,14.299,22.622,21.894,32.668    c-13.98,16.657-22.433,38.107-22.433,61.51c0,52.849,42.99,95.837,95.834,95.837c52.851,0,95.844-42.988,95.844-95.837    C487.906,252.826,444.904,209.827,392.067,209.827z M252.866,296.646c-0.798-0.055-1.562-0.241-2.381-0.241    c-2.022,0-3.983,0.252-5.913,0.597l-67.782-102.422h96.732L252.866,296.646z M95.839,375.365c-38.434,0-69.7-31.267-69.7-69.702    c0-38.431,31.267-69.697,69.7-69.697c7.828,0,15.332,1.354,22.363,3.743l-21.628,61.62c-1.277,3.645-0.88,7.649,1.076,10.978    c1.953,3.315,5.277,5.604,9.07,6.238l55.122,9.324C152.55,355.437,126.501,375.365,95.839,375.365z M165.355,301.965    l-38.982-6.601l14.892-42.452C155.219,264.952,164.317,282.396,165.355,301.965z M150.375,226.954l5.716-16.282l66.662,100.73    c-0.049,0.094-0.082,0.171-0.133,0.264l-30.976-5.247c0-0.263,0.038-0.493,0.038-0.756    C191.678,273.083,175.301,244.292,150.375,226.954z M392.067,375.365c-38.436,0-69.7-31.267-69.7-69.702    c0-15.18,4.93-29.177,13.198-40.646c26.625,30.703,50.833,49.445,52.917,51.031c2.37,1.806,5.155,2.682,7.932,2.682    c3.927,0,7.822-1.755,10.384-5.134c4.391-5.729,3.283-13.942-2.445-18.319c-0.481-0.361-23.984-18.583-49.657-48.351    c10.811-6.905,23.617-10.965,37.363-10.965c38.433,0,69.7,31.266,69.7,69.702C461.759,344.094,430.499,375.365,392.067,375.365z"
         id="path7"
         style="fill:#be00ff;fill-opacity:1" /><path
         d="M132.982,159.462L132.982,159.462c21.215,0,46.89-4.651,47.976-4.846c6.198-1.127,10.709-6.522,10.72-12.826    c0.012-6.304-4.476-11.724-10.673-12.87l-12.024-2.287c-19.584-3.765-38.074-7.313-50.398-7.313c-4.364,0-15.97,0-21.466,9.223    c-1.833,3.078-4.219,9.464,0.303,17.809C103.713,157.974,119.731,159.462,132.982,159.462z"
         id="path9"
         style="fill:#be00ff;fill-opacity:1" /></g></g><g
     id="g11" /><g
     id="g13" /><g
     id="g15" /><g
     id="g17" /><g
     id="g19" /><g
     id="g21" /><g
     id="g23" /><g
     id="g25" /><g
     id="g27" /><g
     id="g29" /><g
     id="g31" /><g
     id="g33" /><g
     id="g35" /><g
     id="g37" /><g
     id="g39" /></svg>