<?xml version="1.0" encoding="iso-8859-1"?>
<!-- Generator: Adobe Illustrator 19.0.0, SVG Export Plug-In . SVG Version: 6.00 Build 0)  -->
<svg version="1.1" id="Layer_1" xmlns="http://www.w3.org/2000/svg" xmlns:xlink="http://www.w3.org/1999/xlink" x="0px" y="0px"
	 viewBox="0 0 512 512" style="enable-background:new 0 0 512 512;" xml:space="preserve">
<g>
	<g>
		<path d="M303.936,27.538h-95.873c-5.632,0-10.199,4.566-10.199,10.199v101.992c0,5.633,4.567,10.199,10.199,10.199h95.873
			c5.632,0,10.199-4.566,10.199-10.199V37.737C314.135,32.104,309.568,27.538,303.936,27.538z M293.737,129.53h-75.474V47.936
			h75.474V129.53z"/>
	</g>
</g>
<g>
	<g>
		<path d="M272.319,77.514h-32.637c-5.632,0-10.199,4.566-10.199,10.199c0,5.633,4.567,10.199,10.199,10.199h32.637
			c5.632,0,10.199-4.566,10.199-10.199C282.518,82.08,277.951,77.514,272.319,77.514z"/>
	</g>
</g>
<g>
	<g>
		<path d="M298.837,174.406h-5.1c-5.632,0-10.199,4.566-10.199,10.199s4.567,10.199,10.199,10.199h5.1
			c5.632,0,10.199-4.566,10.199-10.199S304.469,174.406,298.837,174.406z"/>
	</g>
</g>
<g>
	<g>
		<path d="M261.1,174.406h-47.936c-5.632,0-10.199,4.566-10.199,10.199s4.567,10.199,10.199,10.199H261.1
			c5.632,0,10.199-4.566,10.199-10.199S266.732,174.406,261.1,174.406z"/>
	</g>
</g>
<g>
	<g>
		<path d="M332.494,0H179.506c-5.632,0-10.199,4.566-10.199,10.199v220.303c0,5.633,4.567,10.199,10.199,10.199h66.295v261.1
			c0,5.633,4.567,10.199,10.199,10.199c5.632,0,10.199-4.566,10.199-10.199v-261.1h66.295c5.632,0,10.199-4.566,10.199-10.199
			V10.199C342.693,4.566,338.126,0,332.494,0z M322.295,220.303h-132.59V20.398h132.59V220.303z"/>
	</g>
</g>
<g>
</g>
<g>
</g>
<g>
</g>
<g>
</g>
<g>
</g>
<g>
</g>
<g>
</g>
<g>
</g>
<g>
</g>
<g>
</g>
<g>
</g>
<g>
</g>
<g>
</g>
<g>
</g>
<g>
</g>
</svg>
