<?xml version="1.0" encoding="UTF-8" standalone="no"?>
<!-- Generator: Adobe Illustrator 16.0.0, SVG Export Plug-In . SVG Version: 6.00 Build 0)  -->

<svg
   xmlns:dc="http://purl.org/dc/elements/1.1/"
   xmlns:cc="http://creativecommons.org/ns#"
   xmlns:rdf="http://www.w3.org/1999/02/22-rdf-syntax-ns#"
   xmlns:svg="http://www.w3.org/2000/svg"
   xmlns="http://www.w3.org/2000/svg"
   xmlns:sodipodi="http://sodipodi.sourceforge.net/DTD/sodipodi-0.dtd"
   xmlns:inkscape="http://www.inkscape.org/namespaces/inkscape"
   version="1.1"
   id="Capa_1"
   x="0px"
   y="0px"
   width="111.847px"
   height="111.847px"
   viewBox="0 0 111.847 111.847"
   style="enable-background:new 0 0 111.847 111.847;"
   xml:space="preserve"
   inkscape:version="0.91 r13725"
   sodipodi:docname="car.svg"><metadata
     id="metadata47"><rdf:RDF><cc:Work
         rdf:about=""><dc:format>image/svg+xml</dc:format><dc:type
           rdf:resource="http://purl.org/dc/dcmitype/StillImage" /></cc:Work></rdf:RDF></metadata><defs
     id="defs45" /><sodipodi:namedview
     pagecolor="#ffffff"
     bordercolor="#666666"
     borderopacity="1"
     objecttolerance="10"
     gridtolerance="10"
     guidetolerance="10"
     inkscape:pageopacity="0"
     inkscape:pageshadow="2"
     inkscape:window-width="1920"
     inkscape:window-height="1017"
     id="namedview43"
     showgrid="false"
     inkscape:zoom="2.1100253"
     inkscape:cx="-53.316896"
     inkscape:cy="55.9235"
     inkscape:window-x="-8"
     inkscape:window-y="-8"
     inkscape:window-maximized="1"
     inkscape:current-layer="Capa_1" /><g
     id="g3"
     transform="matrix(-1,0,0,1,111.84695,0)"
     style="fill:#000000;fill-opacity:1"><g
       id="g5"
       style="fill:#000000;fill-opacity:1"><path
         d="m 108.626,53.994 1.239,-0.943 0,-5.953 -1.239,-0.916 0,-1.391 0,-0.928 3.221,-2.58 -3.221,-2.027 C 86.933,24.417 47.928,27.176 47.928,27.176 c -9.219,0 -26.801,21.2 -26.801,21.2 0,0 -10.071,1.687 -16.659,5.636 -6.584,3.949 -3.946,19.757 -3.946,19.757 l 10.205,0 c 0,-6.544 5.308,-11.854 11.854,-11.854 6.547,0 11.851,5.311 11.851,11.854 l 48.894,0 c 0,-6.544 5.308,-11.854 11.854,-11.854 6.543,0 11.848,5.311 11.848,11.854 l 1.598,0 0,-3.604 1.979,-2.167 0,-7.888 -1.979,-2.632 0,-3.484 z m -98.855,5.692 -5.467,0 0,-3.456 5.467,0 0,3.456 z m 52.752,-12.634 -32.971,0 c 0,0 11.735,-14.903 17.318,-14.903 5.588,0 15.649,0 15.649,0 l 0,14.903 0.004,0 z m 4.401,0.05 0,-15.315 c 0,0 22.792,0.786 31.241,15.314 l -31.241,0 z"
         id="path7"
         inkscape:connector-curvature="0"
         style="fill:#000000;fill-opacity:1" /><path
         d="m 22.417,62.661 c -6.126,0 -11.105,4.979 -11.105,11.101 0,6.13 4.982,11.112 11.105,11.112 6.122,0 11.108,-4.982 11.108,-11.112 C 33.526,67.639 28.54,62.661 22.417,62.661 Z m 0,19.738 c -4.759,0 -8.631,-3.87 -8.631,-8.638 0,-4.753 3.872,-8.623 8.631,-8.623 4.758,0 8.634,3.87 8.634,8.623 -0.003,4.764 -3.875,8.638 -8.634,8.638 z"
         id="path9"
         inkscape:connector-curvature="0"
         style="fill:#000000;fill-opacity:1" /><path
         d="m 94.962,62.661 c -6.126,0 -11.105,4.979 -11.105,11.101 0,0.343 0.068,0.661 0.103,0.986 l -48.79,0 0,3.456 48.796,0 0,-3.354 c 0.559,5.612 5.246,10.021 10.996,10.021 6.122,0 11.104,-4.983 11.104,-11.112 10e-4,-6.12 -4.982,-11.098 -11.104,-11.098 z m 0,19.738 c -4.761,0 -8.631,-3.87 -8.631,-8.638 0,-4.753 3.867,-8.623 8.631,-8.623 4.76,0 8.63,3.87 8.63,8.623 0,4.764 -3.87,8.638 -8.63,8.638 z"
         id="path11"
         inkscape:connector-curvature="0"
         style="fill:#000000;fill-opacity:1" /></g></g><g
     id="g13" /><g
     id="g15" /><g
     id="g17" /><g
     id="g19" /><g
     id="g21" /><g
     id="g23" /><g
     id="g25" /><g
     id="g27" /><g
     id="g29" /><g
     id="g31" /><g
     id="g33" /><g
     id="g35" /><g
     id="g37" /><g
     id="g39" /><g
     id="g41" /></svg>