<?xml version="1.0" encoding="UTF-8" standalone="no"?>
<!-- Generator: Adobe Illustrator 16.0.0, SVG Export Plug-In . SVG Version: 6.00 Build 0)  -->

<svg
   xmlns:dc="http://purl.org/dc/elements/1.1/"
   xmlns:cc="http://creativecommons.org/ns#"
   xmlns:rdf="http://www.w3.org/1999/02/22-rdf-syntax-ns#"
   xmlns:svg="http://www.w3.org/2000/svg"
   xmlns="http://www.w3.org/2000/svg"
   xmlns:sodipodi="http://sodipodi.sourceforge.net/DTD/sodipodi-0.dtd"
   xmlns:inkscape="http://www.inkscape.org/namespaces/inkscape"
   version="1.1"
   id="Capa_1"
   x="0px"
   y="0px"
   width="512px"
   height="512px"
   viewBox="0 0 485.213 485.212"
   style="enable-background:new 0 0 485.213 485.212;"
   xml:space="preserve"
   inkscape:version="0.91 r13725"
   sodipodi:docname="flag-map-marker2.svg"><metadata
     id="metadata41"><rdf:RDF><cc:Work
         rdf:about=""><dc:format>image/svg+xml</dc:format><dc:type
           rdf:resource="http://purl.org/dc/dcmitype/StillImage" /></cc:Work></rdf:RDF></metadata><defs
     id="defs39" /><sodipodi:namedview
     pagecolor="#ffffff"
     bordercolor="#666666"
     borderopacity="1"
     objecttolerance="10"
     gridtolerance="10"
     guidetolerance="10"
     inkscape:pageopacity="0"
     inkscape:pageshadow="2"
     inkscape:window-width="1920"
     inkscape:window-height="1017"
     id="namedview37"
     showgrid="false"
     inkscape:zoom="0.4609375"
     inkscape:cx="256"
     inkscape:cy="256"
     inkscape:window-x="-8"
     inkscape:window-y="-8"
     inkscape:window-maximized="1"
     inkscape:current-layer="Capa_1" /><g
     id="g3"
     style="fill:#d70000;fill-opacity:1"><path
       d="M470.052,136.467c-62.343,22.953-109.84,39.299-151.629,90.978c-37.229,46.05-90.98,62.011-151.628,31.657v165.457h-30.329   V15.163C136.465,6.781,143.247,0,151.628,0c8.38,0,15.166,6.781,15.166,15.163c33.67,48.953,92.189,59.795,151.628,60.653   C409.398,77.146,470.052,136.467,470.052,136.467z M197.116,337.612v30.854c35.775,7.318,60.653,22.841,60.653,40.936   c0,25.113-47.534,45.49-106.141,45.49c-58.609,0-106.139-20.377-106.139-45.495c0-18.09,24.875-33.612,60.649-40.931v-30.854   c-55.081,9.535-90.978,36.249-90.978,71.784c0,44.631,56.121,75.816,136.467,75.816c80.344,0,136.468-31.186,136.468-75.816   C288.097,373.861,252.197,347.147,197.116,337.612z"
       fill="#2a3141"
       id="path5"
       style="fill:#d70000;fill-opacity:1" /></g><g
     id="g7" /><g
     id="g9" /><g
     id="g11" /><g
     id="g13" /><g
     id="g15" /><g
     id="g17" /><g
     id="g19" /><g
     id="g21" /><g
     id="g23" /><g
     id="g25" /><g
     id="g27" /><g
     id="g29" /><g
     id="g31" /><g
     id="g33" /><g
     id="g35" /></svg>