<?xml version="1.0" encoding="UTF-8" standalone="no"?>
<!-- Generator: Adobe Illustrator 18.1.1, SVG Export Plug-In . SVG Version: 6.00 Build 0)  -->

<svg
   xmlns:dc="http://purl.org/dc/elements/1.1/"
   xmlns:cc="http://creativecommons.org/ns#"
   xmlns:rdf="http://www.w3.org/1999/02/22-rdf-syntax-ns#"
   xmlns:svg="http://www.w3.org/2000/svg"
   xmlns="http://www.w3.org/2000/svg"
   xmlns:sodipodi="http://sodipodi.sourceforge.net/DTD/sodipodi-0.dtd"
   xmlns:inkscape="http://www.inkscape.org/namespaces/inkscape"
   version="1.1"
   id="Capa_1"
   x="0px"
   y="0px"
   viewBox="0 0 54.005 54.005"
   style="enable-background:new 0 0 54.005 54.005;"
   xml:space="preserve"
   width="512px"
   height="512px"
   inkscape:version="0.91 r13725"
   sodipodi:docname="park-garage_03.svg"><metadata
     id="metadata75"><rdf:RDF><cc:Work
         rdf:about=""><dc:format>image/svg+xml</dc:format><dc:type
           rdf:resource="http://purl.org/dc/dcmitype/StillImage" /><dc:title></dc:title></cc:Work></rdf:RDF></metadata><defs
     id="defs73" /><sodipodi:namedview
     pagecolor="#ffffff"
     bordercolor="#666666"
     borderopacity="1"
     objecttolerance="10"
     gridtolerance="10"
     guidetolerance="10"
     inkscape:pageopacity="0"
     inkscape:pageshadow="2"
     inkscape:window-width="958"
     inkscape:window-height="1008"
     id="namedview71"
     showgrid="false"
     inkscape:zoom="0.4609375"
     inkscape:cx="-64"
     inkscape:cy="256"
     inkscape:window-x="953"
     inkscape:window-y="0"
     inkscape:window-maximized="0"
     inkscape:current-layer="Capa_1" /><g
     id="g3"
     style="stroke:none;stroke-opacity:1;fill:#2a3141;fill-opacity:1"><g
       id="g5"
       style="stroke:none;stroke-opacity:1;fill:#2a3141;fill-opacity:1"><path
         d="M39.892,30.107l-0.282,2.532c-0.105-0.06-0.211-0.114-0.323-0.167l-1.211-5.284c-0.445-2.52-2.344-4.37-5.115-4.275H21.38    c-2.505,0-4.688,0.951-5.112,4.275l-1.211,5.284c-0.113,0.053-0.218,0.107-0.324,0.167l-0.283-2.532c0,0-4.038-1.779-4.997,0    c-0.961,1.78,0,2.421,0,2.421l5.024,0.271c-0.94,0.626-1.542,1.578-1.542,2.648v4.845c0,1.204,0.763,2.261,1.91,2.87v3.256    c0,1.103,1.359,1.992,3.038,1.992s3.038-0.892,3.038-1.992V43.71H32.9v2.707c0,1.103,1.36,1.992,3.038,1.992    c1.68,0,3.038-0.892,3.038-1.992v-3.021c1.435-0.539,2.431-1.728,2.431-3.104v-4.846c0-1.07-0.603-2.022-1.54-2.648l5.024-0.271    c0,0,0.203-0.641,0-2.421C44.689,28.326,39.892,30.107,39.892,30.107z M21.446,39.349h-5.483v-2.604h5.483V39.349z M32.171,39.436    h-9.393v-1.14h9.393V39.436z M32.265,37.964h-9.391v-1.138h9.391V37.964z M16.342,31.738c-0.083,0-0.166,0.009-0.247,0.012    l1.304-5.22c0.242-1.48,1.885-2.759,3.501-2.759h12.544c1.614,0,3.094,1.039,3.5,2.759l1.303,5.22    c-0.081-0.003-0.165-0.012-0.246-0.012H16.342z M39.137,39.349h-5.485v-2.604h5.485V39.349z"
         fill="#0040b8"
         id="path7"
         style="stroke:none;stroke-opacity:1;fill:#2a3141;fill-opacity:1" /><polygon
         points="27.197,4.257 0,15.821 0,49.749 5.806,49.749 5.806,19.68 48.199,19.68 48.199,49.749 54.005,49.749     54.005,15.821   "
         fill="#0040b8"
         id="polygon9"
         style="stroke:none;stroke-opacity:1;fill:#2a3141;fill-opacity:1" /></g><g
       id="g11"
       style="stroke:none;stroke-opacity:1;fill:#2a3141;fill-opacity:1" /><g
       id="g13"
       style="stroke:none;stroke-opacity:1;fill:#2a3141;fill-opacity:1" /><g
       id="g15"
       style="stroke:none;stroke-opacity:1;fill:#2a3141;fill-opacity:1" /><g
       id="g17"
       style="stroke:none;stroke-opacity:1;fill:#2a3141;fill-opacity:1" /><g
       id="g19"
       style="stroke:none;stroke-opacity:1;fill:#2a3141;fill-opacity:1" /><g
       id="g21"
       style="stroke:none;stroke-opacity:1;fill:#2a3141;fill-opacity:1" /><g
       id="g23"
       style="stroke:none;stroke-opacity:1;fill:#2a3141;fill-opacity:1" /><g
       id="g25"
       style="stroke:none;stroke-opacity:1;fill:#2a3141;fill-opacity:1" /><g
       id="g27"
       style="stroke:none;stroke-opacity:1;fill:#2a3141;fill-opacity:1" /><g
       id="g29"
       style="stroke:none;stroke-opacity:1;fill:#2a3141;fill-opacity:1" /><g
       id="g31"
       style="stroke:none;stroke-opacity:1;fill:#2a3141;fill-opacity:1" /><g
       id="g33"
       style="stroke:none;stroke-opacity:1;fill:#2a3141;fill-opacity:1" /><g
       id="g35"
       style="stroke:none;stroke-opacity:1;fill:#2a3141;fill-opacity:1" /><g
       id="g37"
       style="stroke:none;stroke-opacity:1;fill:#2a3141;fill-opacity:1" /><g
       id="g39"
       style="stroke:none;stroke-opacity:1;fill:#2a3141;fill-opacity:1" /></g><g
     id="g41" /><g
     id="g43" /><g
     id="g45" /><g
     id="g47" /><g
     id="g49" /><g
     id="g51" /><g
     id="g53" /><g
     id="g55" /><g
     id="g57" /><g
     id="g59" /><g
     id="g61" /><g
     id="g63" /><g
     id="g65" /><g
     id="g67" /><g
     id="g69" /></svg>