<?xml version="1.0" encoding="UTF-8" standalone="no"?>
<!-- Generator: Adobe Illustrator 16.0.0, SVG Export Plug-In . SVG Version: 6.00 Build 0)  -->

<svg
   xmlns:dc="http://purl.org/dc/elements/1.1/"
   xmlns:cc="http://creativecommons.org/ns#"
   xmlns:rdf="http://www.w3.org/1999/02/22-rdf-syntax-ns#"
   xmlns:svg="http://www.w3.org/2000/svg"
   xmlns="http://www.w3.org/2000/svg"
   xmlns:sodipodi="http://sodipodi.sourceforge.net/DTD/sodipodi-0.dtd"
   xmlns:inkscape="http://www.inkscape.org/namespaces/inkscape"
   version="1.1"
   id="Capa_1"
   x="0px"
   y="0px"
   width="427.411px"
   height="427.41px"
   viewBox="0 0 427.411 427.41"
   style="enable-background:new 0 0 427.411 427.41;"
   xml:space="preserve"
   inkscape:version="0.91 r13725"
   sodipodi:docname="tram_ptPr.svg"><metadata
     id="metadata41"><rdf:RDF><cc:Work
         rdf:about=""><dc:format>image/svg+xml</dc:format><dc:type
           rdf:resource="http://purl.org/dc/dcmitype/StillImage" /><dc:title></dc:title></cc:Work></rdf:RDF></metadata><defs
     id="defs39" /><sodipodi:namedview
     pagecolor="#ffffff"
     bordercolor="#666666"
     borderopacity="1"
     objecttolerance="10"
     gridtolerance="10"
     guidetolerance="10"
     inkscape:pageopacity="0"
     inkscape:pageshadow="2"
     inkscape:window-width="958"
     inkscape:window-height="1008"
     id="namedview37"
     showgrid="false"
     inkscape:zoom="0.55216302"
     inkscape:cx="213.70551"
     inkscape:cy="213.705"
     inkscape:window-x="953"
     inkscape:window-y="0"
     inkscape:window-maximized="0"
     inkscape:current-layer="Capa_1" /><g
     id="g3"
     style="fill:#00aaff;fill-opacity:1"><path
       d="M388.547,151.022c-11.359,0-95.658,0-152.244,0l25.861-16.353c2.174-1.374,3.492-3.767,3.492-6.339   c0-2.571-1.318-4.965-3.492-6.339l-27.129-17.154c-1.199-0.758-2.589-1.16-4.008-1.16h-34.644c-1.419,0-2.809,0.402-4.008,1.16   l-27.129,17.154c-2.174,1.374-3.492,3.768-3.492,6.339c0,2.572,1.318,4.965,3.492,6.339l25.862,16.353c-0.21,0-0.436,0-0.637,0   c-36.721,0-70.78,0-70.78,0c-31.684,0-65.348,0-80.828,0c-33.421,0-47.877,148.82-33.058,148.82h14.711   c1.77,13.479,13.294,23.89,27.257,23.89c11.481,0,21.314-7.037,25.433-17.031c4.118,9.994,13.951,17.031,25.433,17.031   c13.963,0,25.487-10.408,27.257-23.891h64.576h111.044c1.771,13.48,13.295,23.891,27.258,23.891   c11.48,0,21.313-7.037,25.433-17.031c4.118,9.994,13.951,17.031,25.433,17.031c13.964,0,25.487-10.408,27.258-23.891h14.707   C436.424,299.844,421.968,151.022,388.547,151.022z M198.556,118.679h30.299l15.268,9.653l-30.418,19.233l-30.417-19.233   L198.556,118.679z M101.411,219.961H25.044c6.09-33.174,14.028-47.225,17.033-50.735h59.333V219.961z M147.01,219.961h-28.003   v-50.735h28.003V219.961z M198.879,281.858h-29.614V169.007h29.614V281.858z M258.143,281.858H228.53V169.007h29.613V281.858z    M308.402,219.961H280.4v-50.735h28.002V219.961z M325.999,219.961v-50.735h59.333c3.005,3.511,10.942,17.562,17.032,50.735   H325.999z"
       id="path5"
       style="fill:#00aaff;fill-opacity:1" /></g><g
     id="g7" /><g
     id="g9" /><g
     id="g11" /><g
     id="g13" /><g
     id="g15" /><g
     id="g17" /><g
     id="g19" /><g
     id="g21" /><g
     id="g23" /><g
     id="g25" /><g
     id="g27" /><g
     id="g29" /><g
     id="g31" /><g
     id="g33" /><g
     id="g35" /></svg>