<?xml version="1.0" encoding="UTF-8" standalone="no"?>
<!-- Generator: Adobe Illustrator 16.0.0, SVG Export Plug-In . SVG Version: 6.00 Build 0)  -->

<svg
   xmlns:dc="http://purl.org/dc/elements/1.1/"
   xmlns:cc="http://creativecommons.org/ns#"
   xmlns:rdf="http://www.w3.org/1999/02/22-rdf-syntax-ns#"
   xmlns:svg="http://www.w3.org/2000/svg"
   xmlns="http://www.w3.org/2000/svg"
   xmlns:sodipodi="http://sodipodi.sourceforge.net/DTD/sodipodi-0.dtd"
   xmlns:inkscape="http://www.inkscape.org/namespaces/inkscape"
   version="1.1"
   id="Capa_1"
   x="0px"
   y="0px"
   width="555.9px"
   height="555.9px"
   viewBox="0 0 555.9 555.9"
   style="enable-background:new 0 0 555.9 555.9;"
   xml:space="preserve"
   inkscape:version="0.91 r13725"
   sodipodi:docname="walk_Pr.svg"><metadata
     id="metadata42"><rdf:RDF><cc:Work
         rdf:about=""><dc:format>image/svg+xml</dc:format><dc:type
           rdf:resource="http://purl.org/dc/dcmitype/StillImage" /><dc:title></dc:title></cc:Work></rdf:RDF></metadata><defs
     id="defs40" /><sodipodi:namedview
     pagecolor="#ffffff"
     bordercolor="#666666"
     borderopacity="1"
     objecttolerance="10"
     gridtolerance="10"
     guidetolerance="10"
     inkscape:pageopacity="0"
     inkscape:pageshadow="2"
     inkscape:window-width="958"
     inkscape:window-height="1008"
     id="namedview38"
     showgrid="false"
     inkscape:zoom="0.42453677"
     inkscape:cx="277.95001"
     inkscape:cy="277.95001"
     inkscape:window-x="953"
     inkscape:window-y="0"
     inkscape:window-maximized="0"
     inkscape:current-layer="Capa_1" /><g
     id="g3"
     style="fill:#00aaff;fill-opacity:1"><g
       id="directionswalk"
       style="fill:#00aaff;fill-opacity:1"><path
         d="M316.2,91.8c25.5,0,45.9-20.4,45.9-45.9S341.7,0,316.2,0s-45.9,20.4-45.9,45.9S290.7,91.8,316.2,91.8z M318.75,249.9    H443.7V204h-91.8l-51-84.15c-7.65-12.75-22.95-22.95-38.25-22.95c-5.1,0-7.65,0-12.75,2.55L112.2,142.8v132.6h45.9v-94.35    l53.55-17.85L112.2,555.9h45.9l73.95-206.551L290.7,428.4v127.5h45.9V392.699l-63.75-114.75L290.7,204L318.75,249.9z"
         id="path6"
         style="fill:#00aaff;fill-opacity:1" /></g></g><g
     id="g8" /><g
     id="g10" /><g
     id="g12" /><g
     id="g14" /><g
     id="g16" /><g
     id="g18" /><g
     id="g20" /><g
     id="g22" /><g
     id="g24" /><g
     id="g26" /><g
     id="g28" /><g
     id="g30" /><g
     id="g32" /><g
     id="g34" /><g
     id="g36" /></svg>